<svg xmlns="http://www.w3.org/2000/svg" xmlns:xlink="http://www.w3.org/1999/xlink"><symbol id="heart" viewBox="0 -28 512.001 512"><path d="M256 455.516a30.022 30.022 0 01-19.793-7.438c-20.684-18.086-40.625-35.082-58.219-50.074l-.09-.078c-51.582-43.957-96.125-81.918-127.117-119.313C16.137 236.81 0 197.172 0 153.871c0-42.07 14.426-80.883 40.617-109.293C67.121 15.832 103.488 0 143.031 0c29.555 0 56.621 9.344 80.446 27.77C235.5 37.07 246.398 48.453 256 61.73c9.605-13.277 20.5-24.66 32.527-33.96C312.352 9.344 339.418 0 368.973 0c39.539 0 75.91 15.832 102.414 44.578C497.578 72.988 512 111.801 512 153.871c0 43.3-16.133 82.938-50.777 124.738-30.993 37.399-75.532 75.356-127.106 119.309-17.625 15.016-37.597 32.039-58.328 50.168a30.046 30.046 0 01-19.789 7.43zM143.031 29.992c-31.066 0-59.605 12.399-80.367 34.914-21.07 22.856-32.676 54.45-32.676 88.965 0 36.418 13.535 68.988 43.883 105.606 29.332 35.394 72.961 72.574 123.477 115.625l.093.078c17.66 15.05 37.68 32.113 58.516 50.332 20.961-18.254 41.012-35.344 58.707-50.418 50.512-43.051 94.137-80.223 123.469-115.617 30.344-36.618 43.879-69.188 43.879-105.606 0-34.516-11.606-66.11-32.676-88.965-20.758-22.515-49.3-34.914-80.363-34.914-22.758 0-43.653 7.235-62.102 21.5-16.441 12.719-27.894 28.797-34.61 40.047-3.452 5.785-9.53 9.238-16.261 9.238s-12.809-3.453-16.262-9.238c-6.71-11.25-18.164-27.328-34.61-40.047-18.448-14.265-39.343-21.5-62.097-21.5zm0 0"/></symbol><symbol id="logo" viewBox="0 0 104 104"><g transform="translate(2 2)" stroke="#1565C0" stroke-width="3.5" fill="none" fill-rule="evenodd" stroke-linecap="round" stroke-linejoin="round"><circle fill="#E2F3FB" cx="50" cy="50" r="50"/><path fill="#FFF" d="M70.966 19.242v15.247L34.99 40.511V25.289z"/><ellipse fill="#FFF" cx="63.471" cy="66.44" rx="7.495" ry="5.93"/><ellipse fill="#FFF" cx="27.495" cy="72.37" rx="7.495" ry="5.93"/><path d="M34.99 40.643V72.37M70.966 35.011v31.434" fill="#E2F3FB"/></g></symbol><symbol id="play-button" viewBox="0 0 512 512"><path d="M256 0C114.833 0 0 114.844 0 256s114.833 256 256 256 256-114.844 256-256S397.167 0 256 0zm0 490.667C126.604 490.667 21.333 385.396 21.333 256S126.604 21.333 256 21.333 490.667 126.604 490.667 256 385.396 490.667 256 490.667z"/><path d="M357.771 247.031l-149.333-96c-3.271-2.135-7.5-2.25-10.875-.396A10.653 10.653 0 00192 160v192c0 3.906 2.125 7.49 5.563 9.365a10.68 10.68 0 005.104 1.302c2 0 4.021-.563 5.771-1.698l149.333-96c3.042-1.958 4.896-5.344 4.896-8.969s-1.854-7.01-4.896-8.969zm-144.438 85.427V179.542L332.271 256l-118.938 76.458z"/></symbol><symbol id="sprite"><symbol id="heart" viewBox="0 -28 512.001 512"><path d="M256 455.516a30.022 30.022 0 01-19.793-7.438c-20.684-18.086-40.625-35.082-58.219-50.074l-.09-.078c-51.582-43.957-96.125-81.918-127.117-119.313C16.137 236.81 0 197.172 0 153.871c0-42.07 14.426-80.883 40.617-109.293C67.121 15.832 103.488 0 143.031 0c29.555 0 56.621 9.344 80.446 27.77C235.5 37.07 246.398 48.453 256 61.73c9.605-13.277 20.5-24.66 32.527-33.96C312.352 9.344 339.418 0 368.973 0c39.539 0 75.91 15.832 102.414 44.578C497.578 72.988 512 111.801 512 153.871c0 43.3-16.133 82.938-50.777 124.738-30.993 37.399-75.532 75.356-127.106 119.309-17.625 15.016-37.597 32.039-58.328 50.168a30.046 30.046 0 01-19.789 7.43zM143.031 29.992c-31.066 0-59.605 12.399-80.367 34.914-21.07 22.856-32.676 54.45-32.676 88.965 0 36.418 13.535 68.988 43.883 105.606 29.332 35.394 72.961 72.574 123.477 115.625l.093.078c17.66 15.05 37.68 32.113 58.516 50.332 20.961-18.254 41.012-35.344 58.707-50.418 50.512-43.051 94.137-80.223 123.469-115.617 30.344-36.618 43.879-69.188 43.879-105.606 0-34.516-11.606-66.11-32.676-88.965-20.758-22.515-49.3-34.914-80.363-34.914-22.758 0-43.653 7.235-62.102 21.5-16.441 12.719-27.894 28.797-34.61 40.047-3.452 5.785-9.53 9.238-16.261 9.238s-12.809-3.453-16.262-9.238c-6.71-11.25-18.164-27.328-34.61-40.047-18.448-14.265-39.343-21.5-62.097-21.5zm0 0"/></symbol><symbol id="logo" viewBox="0 0 104 104"><g transform="translate(2 2)" stroke="#1565C0" stroke-width="3.5" fill="none" fill-rule="evenodd" stroke-linecap="round" stroke-linejoin="round"><circle fill="#E2F3FB" cx="50" cy="50" r="50"/><path fill="#FFF" d="M70.966 19.242v15.247L34.99 40.511V25.289z"/><ellipse fill="#FFF" cx="63.471" cy="66.44" rx="7.495" ry="5.93"/><ellipse fill="#FFF" cx="27.495" cy="72.37" rx="7.495" ry="5.93"/><path d="M34.99 40.643V72.37M70.966 35.011v31.434" fill="#E2F3FB"/></g></symbol><symbol id="play-button" viewBox="0 0 512 512"><path d="M256 0C114.833 0 0 114.844 0 256s114.833 256 256 256 256-114.844 256-256S397.167 0 256 0zm0 490.667C126.604 490.667 21.333 385.396 21.333 256S126.604 21.333 256 21.333 490.667 126.604 490.667 256 385.396 490.667 256 490.667z"/><path d="M357.771 247.031l-149.333-96c-3.271-2.135-7.5-2.25-10.875-.396A10.653 10.653 0 00192 160v192c0 3.906 2.125 7.49 5.563 9.365a10.68 10.68 0 005.104 1.302c2 0 4.021-.563 5.771-1.698l149.333-96c3.042-1.958 4.896-5.344 4.896-8.969s-1.854-7.01-4.896-8.969zm-144.438 85.427V179.542L332.271 256l-118.938 76.458z"/></symbol><symbol id="sprite"><symbol id="heart" viewBox="0 -28 512.001 512"><path d="M256 455.516a30.022 30.022 0 01-19.793-7.438c-20.684-18.086-40.625-35.082-58.219-50.074l-.09-.078c-51.582-43.957-96.125-81.918-127.117-119.313C16.137 236.81 0 197.172 0 153.871c0-42.07 14.426-80.883 40.617-109.293C67.121 15.832 103.488 0 143.031 0c29.555 0 56.621 9.344 80.446 27.77C235.5 37.07 246.398 48.453 256 61.73c9.605-13.277 20.5-24.66 32.527-33.96C312.352 9.344 339.418 0 368.973 0c39.539 0 75.91 15.832 102.414 44.578C497.578 72.988 512 111.801 512 153.871c0 43.3-16.133 82.938-50.777 124.738-30.993 37.399-75.532 75.356-127.106 119.309-17.625 15.016-37.597 32.039-58.328 50.168a30.046 30.046 0 01-19.789 7.43zM143.031 29.992c-31.066 0-59.605 12.399-80.367 34.914-21.07 22.856-32.676 54.45-32.676 88.965 0 36.418 13.535 68.988 43.883 105.606 29.332 35.394 72.961 72.574 123.477 115.625l.093.078c17.66 15.05 37.68 32.113 58.516 50.332 20.961-18.254 41.012-35.344 58.707-50.418 50.512-43.051 94.137-80.223 123.469-115.617 30.344-36.618 43.879-69.188 43.879-105.606 0-34.516-11.606-66.11-32.676-88.965-20.758-22.515-49.3-34.914-80.363-34.914-22.758 0-43.653 7.235-62.102 21.5-16.441 12.719-27.894 28.797-34.61 40.047-3.452 5.785-9.53 9.238-16.261 9.238s-12.809-3.453-16.262-9.238c-6.71-11.25-18.164-27.328-34.61-40.047-18.448-14.265-39.343-21.5-62.097-21.5zm0 0"/></symbol><symbol id="logo" viewBox="0 0 104 104"><g transform="translate(2 2)" stroke="#1565C0" stroke-width="3.5" fill="none" fill-rule="evenodd" stroke-linecap="round" stroke-linejoin="round"><circle fill="#E2F3FB" cx="50" cy="50" r="50"/><path fill="#FFF" d="M70.966 19.242v15.247L34.99 40.511V25.289z"/><ellipse fill="#FFF" cx="63.471" cy="66.44" rx="7.495" ry="5.93"/><ellipse fill="#FFF" cx="27.495" cy="72.37" rx="7.495" ry="5.93"/><path d="M34.99 40.643V72.37M70.966 35.011v31.434" fill="#E2F3FB"/></g></symbol><symbol id="play-button" viewBox="0 0 512 512"><path d="M256 0C114.833 0 0 114.844 0 256s114.833 256 256 256 256-114.844 256-256S397.167 0 256 0zm0 490.667C126.604 490.667 21.333 385.396 21.333 256S126.604 21.333 256 21.333 490.667 126.604 490.667 256 385.396 490.667 256 490.667z"/><path d="M357.771 247.031l-149.333-96c-3.271-2.135-7.5-2.25-10.875-.396A10.653 10.653 0 00192 160v192c0 3.906 2.125 7.49 5.563 9.365a10.68 10.68 0 005.104 1.302c2 0 4.021-.563 5.771-1.698l149.333-96c3.042-1.958 4.896-5.344 4.896-8.969s-1.854-7.01-4.896-8.969zm-144.438 85.427V179.542L332.271 256l-118.938 76.458z"/></symbol><symbol id="sprite"><symbol id="heart" viewBox="0 -28 512.001 512"><path d="M256 455.516a30.022 30.022 0 01-19.793-7.438c-20.684-18.086-40.625-35.082-58.219-50.074l-.09-.078c-51.582-43.957-96.125-81.918-127.117-119.313C16.137 236.81 0 197.172 0 153.871c0-42.07 14.426-80.883 40.617-109.293C67.121 15.832 103.488 0 143.031 0c29.555 0 56.621 9.344 80.446 27.77C235.5 37.07 246.398 48.453 256 61.73c9.605-13.277 20.5-24.66 32.527-33.96C312.352 9.344 339.418 0 368.973 0c39.539 0 75.91 15.832 102.414 44.578C497.578 72.988 512 111.801 512 153.871c0 43.3-16.133 82.938-50.777 124.738-30.993 37.399-75.532 75.356-127.106 119.309-17.625 15.016-37.597 32.039-58.328 50.168a30.046 30.046 0 01-19.789 7.43zM143.031 29.992c-31.066 0-59.605 12.399-80.367 34.914-21.07 22.856-32.676 54.45-32.676 88.965 0 36.418 13.535 68.988 43.883 105.606 29.332 35.394 72.961 72.574 123.477 115.625l.093.078c17.66 15.05 37.68 32.113 58.516 50.332 20.961-18.254 41.012-35.344 58.707-50.418 50.512-43.051 94.137-80.223 123.469-115.617 30.344-36.618 43.879-69.188 43.879-105.606 0-34.516-11.606-66.11-32.676-88.965-20.758-22.515-49.3-34.914-80.363-34.914-22.758 0-43.653 7.235-62.102 21.5-16.441 12.719-27.894 28.797-34.61 40.047-3.452 5.785-9.53 9.238-16.261 9.238s-12.809-3.453-16.262-9.238c-6.71-11.25-18.164-27.328-34.61-40.047-18.448-14.265-39.343-21.5-62.097-21.5zm0 0"/></symbol><symbol id="logo" viewBox="0 0 104 104"><g transform="translate(2 2)" stroke="#1565C0" stroke-width="3.5" fill="none" fill-rule="evenodd" stroke-linecap="round" stroke-linejoin="round"><circle fill="#E2F3FB" cx="50" cy="50" r="50"/><path fill="#FFF" d="M70.966 19.242v15.247L34.99 40.511V25.289z"/><ellipse fill="#FFF" cx="63.471" cy="66.44" rx="7.495" ry="5.93"/><ellipse fill="#FFF" cx="27.495" cy="72.37" rx="7.495" ry="5.93"/><path d="M34.99 40.643V72.37M70.966 35.011v31.434" fill="#E2F3FB"/></g></symbol><symbol id="play-button" viewBox="0 0 512 512"><path d="M256 0C114.833 0 0 114.844 0 256s114.833 256 256 256 256-114.844 256-256S397.167 0 256 0zm0 490.667C126.604 490.667 21.333 385.396 21.333 256S126.604 21.333 256 21.333 490.667 126.604 490.667 256 385.396 490.667 256 490.667z"/><path d="M357.771 247.031l-149.333-96c-3.271-2.135-7.5-2.25-10.875-.396A10.653 10.653 0 00192 160v192c0 3.906 2.125 7.49 5.563 9.365a10.68 10.68 0 005.104 1.302c2 0 4.021-.563 5.771-1.698l149.333-96c3.042-1.958 4.896-5.344 4.896-8.969s-1.854-7.01-4.896-8.969zm-144.438 85.427V179.542L332.271 256l-118.938 76.458z"/></symbol><symbol id="sprite"><symbol id="heart" viewBox="0 -28 512.001 512"><path d="M256 455.516a30.022 30.022 0 01-19.793-7.438c-20.684-18.086-40.625-35.082-58.219-50.074l-.09-.078c-51.582-43.957-96.125-81.918-127.117-119.313C16.137 236.81 0 197.172 0 153.871c0-42.07 14.426-80.883 40.617-109.293C67.121 15.832 103.488 0 143.031 0c29.555 0 56.621 9.344 80.446 27.77C235.5 37.07 246.398 48.453 256 61.73c9.605-13.277 20.5-24.66 32.527-33.96C312.352 9.344 339.418 0 368.973 0c39.539 0 75.91 15.832 102.414 44.578C497.578 72.988 512 111.801 512 153.871c0 43.3-16.133 82.938-50.777 124.738-30.993 37.399-75.532 75.356-127.106 119.309-17.625 15.016-37.597 32.039-58.328 50.168a30.046 30.046 0 01-19.789 7.43zM143.031 29.992c-31.066 0-59.605 12.399-80.367 34.914-21.07 22.856-32.676 54.45-32.676 88.965 0 36.418 13.535 68.988 43.883 105.606 29.332 35.394 72.961 72.574 123.477 115.625l.093.078c17.66 15.05 37.68 32.113 58.516 50.332 20.961-18.254 41.012-35.344 58.707-50.418 50.512-43.051 94.137-80.223 123.469-115.617 30.344-36.618 43.879-69.188 43.879-105.606 0-34.516-11.606-66.11-32.676-88.965-20.758-22.515-49.3-34.914-80.363-34.914-22.758 0-43.653 7.235-62.102 21.5-16.441 12.719-27.894 28.797-34.61 40.047-3.452 5.785-9.53 9.238-16.261 9.238s-12.809-3.453-16.262-9.238c-6.71-11.25-18.164-27.328-34.61-40.047-18.448-14.265-39.343-21.5-62.097-21.5zm0 0"/></symbol><symbol id="logo" viewBox="0 0 104 104"><g transform="translate(2 2)" stroke="#1565C0" stroke-width="3.5" fill="none" fill-rule="evenodd" stroke-linecap="round" stroke-linejoin="round"><circle fill="#E2F3FB" cx="50" cy="50" r="50"/><path fill="#FFF" d="M70.966 19.242v15.247L34.99 40.511V25.289z"/><ellipse fill="#FFF" cx="63.471" cy="66.44" rx="7.495" ry="5.93"/><ellipse fill="#FFF" cx="27.495" cy="72.37" rx="7.495" ry="5.93"/><path d="M34.99 40.643V72.37M70.966 35.011v31.434" fill="#E2F3FB"/></g></symbol><symbol id="play-button" viewBox="0 0 512 512"><path d="M256 0C114.833 0 0 114.844 0 256s114.833 256 256 256 256-114.844 256-256S397.167 0 256 0zm0 490.667C126.604 490.667 21.333 385.396 21.333 256S126.604 21.333 256 21.333 490.667 126.604 490.667 256 385.396 490.667 256 490.667z"/><path d="M357.771 247.031l-149.333-96c-3.271-2.135-7.5-2.25-10.875-.396A10.653 10.653 0 00192 160v192c0 3.906 2.125 7.49 5.563 9.365a10.68 10.68 0 005.104 1.302c2 0 4.021-.563 5.771-1.698l149.333-96c3.042-1.958 4.896-5.344 4.896-8.969s-1.854-7.01-4.896-8.969zm-144.438 85.427V179.542L332.271 256l-118.938 76.458z"/></symbol><symbol id="sprite"><symbol id="heart" viewBox="0 -28 512.001 512"><path d="M256 455.516a30.022 30.022 0 01-19.793-7.438c-20.684-18.086-40.625-35.082-58.219-50.074l-.09-.078c-51.582-43.957-96.125-81.918-127.117-119.313C16.137 236.81 0 197.172 0 153.871c0-42.07 14.426-80.883 40.617-109.293C67.121 15.832 103.488 0 143.031 0c29.555 0 56.621 9.344 80.446 27.77C235.5 37.07 246.398 48.453 256 61.73c9.605-13.277 20.5-24.66 32.527-33.96C312.352 9.344 339.418 0 368.973 0c39.539 0 75.91 15.832 102.414 44.578C497.578 72.988 512 111.801 512 153.871c0 43.3-16.133 82.938-50.777 124.738-30.993 37.399-75.532 75.356-127.106 119.309-17.625 15.016-37.597 32.039-58.328 50.168a30.046 30.046 0 01-19.789 7.43zM143.031 29.992c-31.066 0-59.605 12.399-80.367 34.914-21.07 22.856-32.676 54.45-32.676 88.965 0 36.418 13.535 68.988 43.883 105.606 29.332 35.394 72.961 72.574 123.477 115.625l.093.078c17.66 15.05 37.68 32.113 58.516 50.332 20.961-18.254 41.012-35.344 58.707-50.418 50.512-43.051 94.137-80.223 123.469-115.617 30.344-36.618 43.879-69.188 43.879-105.606 0-34.516-11.606-66.11-32.676-88.965-20.758-22.515-49.3-34.914-80.363-34.914-22.758 0-43.653 7.235-62.102 21.5-16.441 12.719-27.894 28.797-34.61 40.047-3.452 5.785-9.53 9.238-16.261 9.238s-12.809-3.453-16.262-9.238c-6.71-11.25-18.164-27.328-34.61-40.047-18.448-14.265-39.343-21.5-62.097-21.5zm0 0"/></symbol><symbol id="logo" viewBox="0 0 104 104"><g transform="translate(2 2)" stroke="#1565C0" stroke-width="3.5" fill="none" fill-rule="evenodd" stroke-linecap="round" stroke-linejoin="round"><circle fill="#E2F3FB" cx="50" cy="50" r="50"/><path fill="#FFF" d="M70.966 19.242v15.247L34.99 40.511V25.289z"/><ellipse fill="#FFF" cx="63.471" cy="66.44" rx="7.495" ry="5.93"/><ellipse fill="#FFF" cx="27.495" cy="72.37" rx="7.495" ry="5.93"/><path d="M34.99 40.643V72.37M70.966 35.011v31.434" fill="#E2F3FB"/></g></symbol><symbol id="play-button" viewBox="0 0 512 512"><path d="M256 0C114.833 0 0 114.844 0 256s114.833 256 256 256 256-114.844 256-256S397.167 0 256 0zm0 490.667C126.604 490.667 21.333 385.396 21.333 256S126.604 21.333 256 21.333 490.667 126.604 490.667 256 385.396 490.667 256 490.667z"/><path d="M357.771 247.031l-149.333-96c-3.271-2.135-7.5-2.25-10.875-.396A10.653 10.653 0 00192 160v192c0 3.906 2.125 7.49 5.563 9.365a10.68 10.68 0 005.104 1.302c2 0 4.021-.563 5.771-1.698l149.333-96c3.042-1.958 4.896-5.344 4.896-8.969s-1.854-7.01-4.896-8.969zm-144.438 85.427V179.542L332.271 256l-118.938 76.458z"/></symbol></symbol></symbol></symbol></symbol></symbol></svg>